<svg width="96" height="70" viewBox="0 0 96 70" fill="white"
  xmlns="http://www.w3.org/2000/svg">
  <path fill-rule="evenodd" clip-rule="evenodd" d="M47.7897 65.0585C42.8852 67.8943 37.0179 69.5799 30.7666 69.5799C17.976 69.5799 6.77315 62.6068 0.713953 52.2672C0.713953 52.2192 0.667069 52.2192 0.667069 52.1712C0.667069 52.1232 0.617898 52.1232 0.617898 52.0751L5.52261 49.5274L10.4271 47.0254C10.4763 47.0757 10.5254 47.1215 10.5723 47.2198C14.7555 53.9985 22.2573 58.5199 30.7666 58.5199C33.5094 58.5199 36.1536 58.0396 38.5099 57.2689C33.2681 51.2587 30.0944 43.3731 30.0944 34.7648C30.0944 26.2068 33.2212 18.3212 38.4139 12.2606C36.0576 11.4442 33.4602 11.0119 30.7666 11.0119C22.3534 11.0119 14.5634 15.5311 10.2842 22.7923C10.235 22.8403 10.235 22.8906 10.235 22.9364L0.378906 17.8409C0.42579 17.7449 0.47496 17.6488 0.521844 17.5985C6.53415 7.06914 17.88 0 30.7666 0C37.0179 0 42.8852 1.68324 47.7897 4.56944C52.6942 1.68324 58.5615 0 64.8105 0C77.6973 0 89.0454 7.06914 95.0557 17.5985C95.1037 17.6488 95.1517 17.7449 95.1998 17.8409L85.3428 22.9364C85.3428 22.8906 85.3428 22.8403 85.2947 22.7923C81.0158 15.5311 73.2262 11.0119 64.8105 11.0119C62.1191 11.0119 59.5218 11.4442 57.1655 12.2606C62.3581 18.3212 65.4849 26.2068 65.4849 34.7648C65.4849 43.3731 62.3112 51.2587 57.0694 57.2689C59.4257 58.0396 62.07 58.5199 64.8105 58.5199C73.3223 58.5199 80.8236 53.9985 85.0066 47.2198C85.0546 47.1215 85.1026 47.0757 85.1507 47.0254L90.054 49.5274L94.9596 52.0751C94.9596 52.1232 94.9116 52.1232 94.9116 52.1712C94.9116 52.2192 94.8636 52.2192 94.8636 52.2672C88.8053 62.6068 77.6013 69.5799 64.8105 69.5799C58.5615 69.5799 52.6942 67.8943 47.7897 65.0585ZM47.7897 51.2587C43.7495 46.9797 41.1542 41.1615 41.1542 34.7648C41.1542 28.4664 43.6065 22.7443 47.7897 18.4653C51.9728 22.7443 54.4252 28.4664 54.4252 34.7648C54.4252 41.1615 51.8276 46.9797 47.7897 51.2587Z"/>
</svg>
